# 3ds Max Wavefront OBJ Exporter v0.94b - (c)2007 guruware
# File Created: 23.05.2008 22:09:00

mtllib 3cubes.mtl

#
# object Box01
#

v  -17.3178 -26.1759 0.0000
v  -17.3178 7.9267 0.0000
v  14.8705 7.9267 0.0000
v  14.8705 -26.1759 0.0000
v  -17.3178 -26.1759 34.2957
v  14.8705 -26.1759 34.2957
v  14.8705 7.9267 34.2957
v  -17.3178 7.9267 34.2957
# 8 vertices

vn 0.0000 0.0000 -1.0000
vn 0.0000 0.0000 1.0000
vn 0.0000 -1.0000 0.0000
vn 1.0000 0.0000 0.0000
vn 0.0000 1.0000 0.0000
vn -1.0000 0.0000 0.0000
# 6 vertex normals

vt 1.0000 0.0000 0.0000
vt 1.0000 1.0000 0.0000
vt 0.0000 1.0000 0.0000
vt 0.0000 0.0000 0.0000
# 4 texture coords

g Box01
usemtl wire_135006006
f 1/1/1 2/2/1 3/3/1 
f 3/3/1 4/4/1 1/1/1 
f 5/4/2 6/1/2 7/2/2 
f 7/2/2 8/3/2 5/4/2 
f 1/4/3 4/1/3 6/2/3 
f 6/2/3 5/3/3 1/4/3 
f 4/4/4 3/1/4 7/2/4 
f 7/2/4 6/3/4 4/4/4 
f 3/4/5 2/1/5 8/2/5 
f 8/2/5 7/3/5 3/4/5 
f 2/4/6 1/1/6 5/2/6 
f 5/2/6 8/3/6 2/4/6 
# 12 faces

#
# object Box02
#

v  42.6175 -65.9400 0.0000
v  42.6175 -47.4158 0.0000
v  63.7482 -47.4158 0.0000
v  63.7482 -65.9400 0.0000
v  42.6175 -65.9400 22.6653
v  63.7482 -65.9400 22.6653
v  63.7482 -47.4158 22.6653
v  42.6175 -47.4158 22.6653
# 8 vertices

vn 0.0000 0.0000 -1.0000
vn 0.0000 0.0000 1.0000
vn 0.0000 -1.0000 0.0000
vn 1.0000 0.0000 0.0000
vn 0.0000 1.0000 0.0000
vn -1.0000 0.0000 0.0000
# 6 vertex normals

vt 1.0000 0.0000 0.0000
vt 1.0000 1.0000 0.0000
vt 0.0000 1.0000 0.0000
vt 0.0000 0.0000 0.0000
# 4 texture coords

g Box02
usemtl wire_153228153
f 9/5/7 10/6/7 11/7/7 
f 11/7/7 12/8/7 9/5/7 
f 13/8/8 14/5/8 15/6/8 
f 15/6/8 16/7/8 13/8/8 
f 9/8/9 12/5/9 14/6/9 
f 14/6/9 13/7/9 9/8/9 
f 12/8/10 11/5/10 15/6/10 
f 15/6/10 14/7/10 12/8/10 
f 11/8/11 10/5/11 16/6/11 
f 16/6/11 15/7/11 11/8/11 
f 10/8/12 9/5/12 13/6/12 
f 13/6/12 16/7/12 10/8/12 
# 12 faces

#
# object Box03
#

v  -66.6095 22.1756 0.0000
v  -66.6095 49.5701 0.0000
v  -49.9627 49.5701 0.0000
v  -49.9627 22.1756 0.0000
v  -66.6095 22.1756 9.4301
v  -49.9627 22.1756 9.4301
v  -49.9627 49.5701 9.4301
v  -66.6095 49.5701 9.4301
# 8 vertices

vn 0.0000 0.0000 -1.0000
vn 0.0000 0.0000 1.0000
vn 0.0000 -1.0000 0.0000
vn 1.0000 0.0000 0.0000
vn 0.0000 1.0000 0.0000
vn -1.0000 0.0000 0.0000
# 6 vertex normals

vt 1.0000 0.0000 0.0000
vt 1.0000 1.0000 0.0000
vt 0.0000 1.0000 0.0000
vt 0.0000 0.0000 0.0000
# 4 texture coords

g Box03
usemtl wire_227153153
f 17/9/13 18/10/13 19/11/13 
f 19/11/13 20/12/13 17/9/13 
f 21/12/14 22/9/14 23/10/14 
f 23/10/14 24/11/14 21/12/14 
f 17/12/15 20/9/15 22/10/15 
f 22/10/15 21/11/15 17/12/15 
f 20/12/16 19/9/16 23/10/16 
f 23/10/16 22/11/16 20/12/16 
f 19/12/17 18/9/17 24/10/17 
f 24/10/17 23/11/17 19/12/17 
f 18/12/18 17/9/18 21/10/18 
f 21/10/18 24/11/18 18/12/18 
# 12 faces

